<?xml version="1.0" standalone="no"?>
<!DOCTYPE svg PUBLIC "-//W3C//DTD SVG 20010904//EN"
 "http://www.w3.org/TR/2001/REC-SVG-20010904/DTD/svg10.dtd">
<svg version="1.0" xmlns="http://www.w3.org/2000/svg"
 width="600.000000pt" height="600.000000pt" viewBox="0 0 600.000000 600.000000"
 preserveAspectRatio="xMidYMid meet">

<g transform="translate(0.000000,600.000000) scale(0.100000,-0.100000)"
fill="#000000" stroke="none">
<path d="M1692 5242 l-1292 -747 0 -1495 0 -1495 1291 -745 c710 -410 1299
-745 1309 -745 10 0 599 335 1309 745 l1291 745 0 1495 0 1495 -1291 745
c-710 410 -1298 746 -1307 747 -9 1 -599 -334 -1310 -745z m227 -446 c58 -31
66 -55 66 -206 0 -91 -4 -145 -14 -167 -37 -88 -225 -100 -289 -18 -20 26 -22
39 -22 172 0 182 10 205 99 234 37 12 123 4 160 -15z m1496 13 c60 -16 85 -44
85 -96 l0 -43 -64 0 c-63 0 -65 1 -68 27 -4 37 -38 45 -38 10 0 -28 17 -45 88
-83 30 -15 62 -38 72 -51 24 -30 33 -96 20 -144 -9 -34 -18 -44 -53 -60 -80
-36 -218 -14 -246 39 -6 12 -11 43 -11 71 l0 51 65 0 65 0 0 -37 c0 -21 5 -45
10 -53 9 -13 12 -13 24 3 26 34 8 65 -63 106 -36 22 -74 48 -84 59 -40 44 -30
153 15 181 47 30 119 37 183 20z m-1145 -49 l0 -50 -45 0 c-45 0 -45 0 -45
-35 0 -34 1 -35 40 -35 l40 0 0 -50 0 -50 -40 0 -39 0 -3 -87 -3 -88 -72 -3
-73 -3 0 226 0 225 120 0 120 0 0 -50z m270 0 l0 -50 -50 0 -50 0 0 -34 c0
-34 1 -35 43 -38 l42 -3 3 -47 3 -48 -45 0 -46 0 0 -90 0 -90 -75 0 -75 0 0
218 c0 120 3 222 7 225 3 4 60 7 125 7 l118 0 0 -50z m260 0 l0 -50 -45 0
c-45 0 -45 0 -45 -34 0 -34 1 -35 43 -38 l42 -3 0 -45 0 -45 -42 -3 c-43 -3
-43 -3 -43 -43 l0 -39 50 0 50 0 0 -50 0 -50 -125 0 -125 0 0 225 0 225 120 0
120 0 0 -50z m196 -35 l33 -80 1 83 0 82 65 0 65 0 0 -225 0 -226 -67 3 -68 3
-30 85 -30 85 -3 -87 -3 -88 -59 0 -60 0 0 225 0 226 62 -3 62 -3 32 -80z
m704 -140 l0 -225 -75 0 -75 0 0 225 0 225 75 0 75 0 0 -225z m181 103 c8 -68
15 -116 17 -108 1 8 8 62 15 120 l12 105 78 3 c42 2 77 1 77 -2 0 -6 -55 -354
-65 -413 l-6 -33 -109 0 c-61 0 -110 3 -110 8 0 4 -18 104 -40 222 -22 118
-40 216 -40 218 0 1 36 2 79 2 l79 0 13 -122z m449 72 l0 -50 -45 0 c-45 0
-45 0 -45 -35 0 -35 0 -35 45 -35 l45 0 0 -50 0 -50 -45 0 -45 0 0 -40 0 -40
50 0 50 0 0 -50 0 -50 -125 0 -125 0 0 225 0 225 120 0 120 0 0 -50z m138 34
c24 -17 30 -62 10 -82 -7 -7 -24 -12 -38 -12 -33 0 -50 17 -50 51 0 24 30 59
50 59 3 0 16 -7 28 -16z m-768 -654 l0 -180 -75 0 -75 0 0 180 0 180 75 0 75
0 0 -180z m210 136 c0 -23 1 -23 102 -22 l103 1 20 -75 20 -75 10 75 10 75 78
3 c64 2 77 0 77 -13 0 -28 -50 -247 -63 -274 -19 -41 -52 -51 -169 -51 l-108
0 0 30 c0 27 3 30 31 30 21 0 30 4 27 13 -3 6 -22 61 -44 121 -21 60 -40 101
-42 92 -2 -9 -13 -16 -28 -16 -25 0 -25 -1 -22 -82 3 -77 5 -83 26 -86 17 -3
22 -10 22 -33 l0 -29 -88 0 c-127 0 -132 5 -132 131 0 81 -3 99 -15 99 -10 0
-15 10 -15 30 0 20 5 30 15 30 8 0 15 8 15 18 0 29 8 32 92 32 75 0 78 -1 78
-24z m-1969 -27 c42 -14 69 -43 69 -75 0 -23 -3 -24 -67 -24 l-68 -1 55 -19
c57 -19 90 -49 90 -81 0 -32 -21 -66 -49 -79 -67 -32 -250 -19 -285 19 -9 9
-19 32 -22 49 l-6 32 63 0 64 1 -50 19 c-58 23 -75 42 -75 85 0 36 23 62 66
75 42 12 176 12 215 -1z m420 -12 c47 -23 59 -52 59 -141 0 -65 -3 -76 -25
-99 -35 -34 -111 -51 -197 -44 -119 10 -158 47 -158 150 0 47 20 127 32 127 2
0 21 7 43 15 55 21 197 16 246 -8z m405 0 c19 -10 36 -29 43 -48 20 -58 19
-59 -74 -59 l-85 0 0 31 c0 20 -4 29 -12 27 -14 -5 -23 -106 -13 -145 9 -37
35 -29 35 12 l0 35 81 0 82 0 -6 -37 c-12 -73 -88 -109 -212 -101 -125 8 -155
39 -155 159 0 85 10 105 63 130 53 25 203 23 253 -4z m254 -97 c0 -100 3 -120
15 -120 13 0 15 20 15 120 l0 120 85 0 85 0 0 -150 0 -151 -102 -1 c-57 0
-131 -1 -164 -2 -99 -2 -104 7 -104 171 l0 133 85 0 85 0 0 -120z m420 110 c0
-6 9 -6 26 0 56 22 64 16 64 -50 l0 -60 -33 0 c-49 0 -57 -14 -57 -102 l0 -78
-85 0 -85 0 0 150 0 150 85 0 c49 0 85 -4 85 -10z m-1757 -855 c229 -59 347
-239 347 -527 0 -337 -152 -524 -448 -553 -41 -5 -105 -2 -156 5 -205 29 -343
155 -393 357 -20 83 -22 274 -4 358 40 186 156 312 331 359 73 20 250 20 323
1z m1152 -19 c45 -15 86 -31 93 -35 9 -6 3 -29 -24 -94 -20 -48 -39 -87 -43
-87 -3 0 -37 11 -76 24 -133 45 -222 45 -269 1 -21 -19 -26 -34 -26 -70 0 -60
20 -80 151 -146 240 -120 300 -189 300 -345 0 -172 -106 -277 -311 -306 -98
-14 -224 0 -322 35 l-63 22 0 105 c0 88 2 105 15 103 8 -1 60 -18 115 -38 91
-32 108 -35 192 -33 80 3 94 6 117 27 59 56 39 129 -51 184 -32 20 -81 45
-108 57 -76 33 -179 106 -208 147 -48 70 -60 111 -55 198 5 94 27 144 88 199
73 66 149 87 295 82 87 -2 127 -9 190 -30z m1020 0 c44 -14 86 -30 93 -34 10
-7 5 -28 -23 -100 -21 -51 -39 -92 -40 -92 -2 0 -39 14 -82 32 -104 42 -205
45 -273 8 -98 -55 -144 -159 -144 -330 -1 -180 40 -276 136 -324 83 -41 184
-36 376 20 23 7 23 7 20 -92 l-3 -99 -52 -17 c-29 -10 -93 -23 -143 -30 -287
-38 -494 92 -557 349 -22 94 -22 287 1 372 50 187 165 308 337 356 84 23 253
15 354 -19z m790 14 c200 -28 304 -154 293 -354 -6 -106 -35 -172 -100 -231
-68 -61 -138 -85 -285 -98 l-123 -11 0 -183 0 -183 -115 0 -115 0 0 535 0 535
188 0 c103 0 219 -5 257 -10z m-1940 -1587 c212 -66 446 -233 609 -432 60 -73
65 -85 40 -95 -47 -18 -66 -7 -161 94 -167 176 -324 288 -543 386 -76 34 -116
57 -118 69 -4 16 1 17 45 10 26 -4 84 -18 128 -32z m108 -165 c15 -63 66 -110
181 -167 85 -41 122 -67 192 -134 l87 -82 57 3 57 4 28 -49 c15 -26 52 -85 82
-130 39 -58 53 -88 48 -102 -5 -15 7 -28 57 -64 57 -41 165 -87 203 -87 33 0
11 -28 -65 -83 -44 -32 -80 -62 -80 -68 0 -21 -30 -7 -58 29 -50 61 -164 143
-289 207 -132 67 -158 94 -169 176 -6 44 -11 51 -53 78 -89 57 -161 84 -243
89 -67 4 -78 2 -78 -12 0 -24 -39 -59 -60 -53 -22 6 -30 -11 -30 -56 1 -73 77
-176 120 -162 29 9 70 -19 70 -50 0 -16 15 -37 48 -65 27 -22 73 -70 101 -105
29 -36 60 -65 69 -65 23 0 52 -30 52 -53 0 -51 -77 -78 -102 -37 -12 19 -24
20 -189 20 -163 0 -177 -1 -194 -20 -25 -28 -71 -26 -90 3 -12 19 -13 30 -4
56 10 28 8 36 -15 71 -19 28 -33 40 -50 40 -36 0 -57 26 -55 68 1 21 -10 65
-25 100 -63 146 -53 294 25 402 l31 42 -36 30 c-43 36 -66 76 -66 118 0 36 9
38 47 6 15 -12 39 -29 53 -36 31 -17 99 -30 105 -20 2 4 -5 24 -15 46 -22 42
-27 119 -9 130 7 4 28 -13 51 -40 40 -46 88 -77 140 -90 l27 -6 -6 52 c-9 93
31 145 50 66z"/>
<path d="M1804 4684 c-7 -50 -1 -241 9 -250 20 -20 27 19 27 152 0 119 -3 144
-14 144 -10 0 -17 -16 -22 -46z"/>
<path d="M4412 4750 c0 -14 2 -19 5 -12 2 6 2 18 0 25 -3 6 -5 1 -5 -13z"/>
<path d="M3570 4285 c0 -12 13 -15 55 -15 42 0 55 3 55 15 0 12 -13 15 -55 15
-42 0 -55 -3 -55 -15z"/>
<path d="M3570 4110 l0 -130 55 0 55 0 0 130 0 130 -55 0 -55 0 0 -130z"/>
<path d="M3760 4255 c0 -16 -6 -25 -15 -25 -8 0 -15 -4 -15 -10 0 -5 7 -10 15
-10 12 0 15 -18 15 -104 0 -71 4 -107 13 -113 6 -6 47 -13 90 -17 63 -6 77 -4
77 7 0 8 -9 17 -19 20 -23 6 -34 62 -29 147 3 48 6 55 26 58 12 2 22 7 22 12
0 5 -10 10 -22 12 -15 2 -24 11 -26 26 -3 20 -9 22 -68 22 -62 0 -64 -1 -64
-25z"/>
<path d="M3985 4223 c39 -99 85 -239 81 -250 -3 -7 -17 -13 -31 -13 -14 0 -25
-4 -25 -10 0 -13 185 -13 210 0 11 6 24 19 30 30 8 15 60 235 60 255 0 3 -26
5 -59 5 l-58 0 -6 -37 c-4 -21 -9 -68 -13 -105 -4 -38 -10 -68 -13 -68 -4 0
-15 32 -25 71 -40 155 -29 139 -98 139 -53 0 -59 -2 -53 -17z"/>
<path d="M1730 4233 c-52 -19 -68 -81 -27 -107 12 -8 54 -24 94 -37 73 -23 90
-40 71 -73 -15 -26 -57 -20 -64 9 -6 23 -11 25 -65 25 -63 0 -67 -4 -44 -37
20 -28 73 -43 150 -43 107 0 155 24 155 77 0 33 -18 46 -101 73 -84 27 -107
44 -96 74 9 24 58 21 64 -4 5 -17 14 -20 65 -20 51 0 59 2 56 18 -6 32 -66 52
-158 51 -47 0 -92 -3 -100 -6z"/>
<path d="M1822 4178 c6 -18 28 -21 28 -4 0 9 -7 16 -16 16 -9 0 -14 -5 -12
-12z"/>
<path d="M1820 4040 c0 -11 6 -20 14 -20 21 0 31 21 15 31 -22 14 -29 11 -29
-11z"/>
<path d="M2120 4227 c-44 -15 -60 -47 -60 -123 0 -101 43 -134 177 -134 98 0
163 34 163 84 0 13 -13 16 -64 16 l-65 0 -3 -32 c-3 -29 -6 -33 -33 -33 -29 0
-30 2 -33 53 l-3 52 100 0 101 0 0 31 c0 45 -14 65 -60 83 -48 19 -168 21
-220 3z m140 -52 c0 -32 -2 -35 -30 -35 -26 0 -30 4 -30 28 0 35 6 42 37 42
20 0 23 -5 23 -35z"/>
<path d="M2220 4175 c0 -8 5 -15 10 -15 6 0 10 7 10 15 0 8 -4 15 -10 15 -5 0
-10 -7 -10 -15z"/>
<path d="M2220 4055 c0 -24 5 -35 15 -35 10 0 15 11 15 35 0 24 -5 35 -15 35
-10 0 -15 -11 -15 -35z"/>
<path d="M2530 4229 c-52 -21 -60 -37 -60 -118 0 -90 13 -115 68 -131 47 -13
136 -13 184 0 37 11 78 51 78 76 0 10 -16 14 -59 14 -57 0 -60 -1 -63 -26 -3
-31 -28 -50 -52 -41 -13 5 -16 23 -16 107 l0 101 28 -3 c21 -2 28 -9 30 -30 3
-27 5 -28 69 -28 55 0 64 2 59 16 -3 9 -6 20 -6 25 0 6 -19 19 -42 29 -47 22
-173 27 -218 9z"/>
<path d="M2870 4121 c0 -113 1 -121 22 -135 26 -19 95 -21 135 -4 25 10 26 12
8 16 -31 7 -35 20 -35 135 l0 107 -65 0 -65 0 0 -119z"/>
<path d="M3068 4121 c-2 -65 -2 -126 0 -135 3 -13 17 -16 73 -16 l69 0 0 135
0 135 -69 0 -70 0 -3 -119z"/>
<path d="M3290 4105 l0 -135 65 0 65 0 0 75 c0 84 18 115 65 115 23 0 25 4 25
40 0 22 -5 40 -10 40 -18 0 -70 -30 -70 -40 0 -6 -5 -10 -10 -10 -6 0 -8 11
-4 25 6 25 6 25 -60 25 l-66 0 0 -135z"/>
<path d="M1431 3206 c-122 -40 -177 -163 -169 -377 4 -97 8 -123 32 -174 15
-33 35 -68 44 -78 49 -54 180 -82 272 -57 64 17 133 88 154 160 50 163 23 380
-58 468 -55 61 -183 88 -275 58z"/>
<path d="M4430 3056 l0 -156 77 0 c105 0 158 25 185 88 15 34 19 57 14 90 -12
91 -52 118 -190 128 l-86 7 0 -157z"/>
<path d="M2840 1708 c3 -3 48 -34 100 -69 59 -40 147 -114 234 -199 76 -74
134 -125 127 -113 -21 40 -206 217 -286 274 -72 51 -188 121 -175 107z"/>
<path d="M2593 1545 c8 -17 24 -39 36 -49 12 -11 21 -25 21 -31 0 -30 -116
-33 -177 -5 -59 26 -54 6 7 -32 28 -17 50 -33 50 -35 0 -3 -15 -23 -34 -45
-97 -113 -111 -254 -40 -415 17 -38 28 -53 43 -53 28 0 51 -27 51 -60 0 -32
56 -130 75 -130 7 0 20 -9 30 -20 10 -11 31 -20 46 -20 l29 0 -54 83 c-75 116
-98 177 -104 270 -5 91 12 148 58 192 19 18 30 39 30 55 0 38 32 64 67 55 15
-4 54 -7 86 -6 93 4 222 -43 325 -118 38 -28 42 -35 42 -74 0 -71 26 -100 142
-155 101 -48 234 -140 292 -200 l29 -31 54 41 54 41 -51 17 c-57 19 -141 74
-185 120 -23 24 -27 34 -19 47 8 13 2 30 -31 77 -23 34 -55 83 -70 109 l-28
49 -57 -4 -57 -3 -53 58 c-67 73 -154 135 -250 180 -50 22 -88 48 -114 77 -34
38 -38 40 -33 18 4 -15 9 -33 13 -41 18 -49 -122 -16 -215 50 l-24 17 16 -29z
m841 -475 c44 -67 31 -92 -24 -43 -20 17 -30 36 -30 55 0 40 22 35 54 -12z"/>
<path d="M2695 1260 c-8 -14 3 -30 21 -30 8 0 14 9 14 20 0 21 -24 28 -35 10z"/>
<path d="M2626 1148 c-28 -39 -40 -118 -27 -180 15 -72 66 -177 125 -255 l46
-63 130 0 c124 0 130 1 130 20 0 12 -36 58 -87 111 -79 82 -89 89 -115 83 -34
-7 -68 17 -68 48 0 10 -16 34 -35 54 -47 46 -76 106 -78 160 -1 24 -3 44 -4
44 -1 0 -9 -10 -17 -22z"/>
<path d="M2480 826 c0 -8 4 -17 9 -20 11 -7 33 18 24 27 -12 12 -33 7 -33 -7z"/>
<path d="M3062 633 c2 -10 10 -18 18 -18 8 0 16 8 18 18 2 12 -3 17 -18 17
-15 0 -20 -5 -18 -17z"/>
</g>
</svg>
